<svg width="1280" height="720" viewBox="0 0 1280 720" fill="none" xmlns="http://www.w3.org/2000/svg">
  <!-- Placeholder storefront screenshot: product detail page -->
  <rect width="1280" height="720" fill="#f1f5f9"/>
  <!-- Browser chrome -->
  <rect width="1280" height="48" fill="#e2e8f0"/>
  <circle cx="28" cy="24" r="6" fill="#cbd5e1"/>
  <circle cx="50" cy="24" r="6" fill="#cbd5e1"/>
  <circle cx="72" cy="24" r="6" fill="#cbd5e1"/>
  <rect x="320" y="12" width="640" height="24" rx="12" fill="#f8fafc"/>
  <!-- Site header -->
  <rect x="0" y="48" width="1280" height="64" fill="#ffffff"/>
  <rect x="64" y="72" width="120" height="16" rx="8" fill="#334155"/>
  <rect x="760" y="74" width="64" height="12" rx="6" fill="#94a3b8"/>
  <rect x="848" y="74" width="64" height="12" rx="6" fill="#94a3b8"/>
  <rect x="936" y="74" width="64" height="12" rx="6" fill="#94a3b8"/>
  <rect x="1100" y="64" width="116" height="32" rx="16" fill="#3b82f6"/>
  <!-- Product image with thumbnail rail -->
  <rect x="64" y="160" width="560" height="420" rx="16" fill="#dbeafe"/>
  <rect x="64" y="604" width="124" height="80" rx="10" fill="#dbeafe" stroke="#3b82f6" stroke-width="3"/>
  <rect x="210" y="604" width="124" height="80" rx="10" fill="#e0e7ff"/>
  <rect x="356" y="604" width="124" height="80" rx="10" fill="#cffafe"/>
  <rect x="502" y="604" width="124" height="80" rx="10" fill="#dbeafe"/>
  <!-- Product info -->
  <rect x="688" y="170" width="120" height="14" rx="7" fill="#3b82f6"/>
  <rect x="688" y="204" width="420" height="28" rx="14" fill="#334155"/>
  <rect x="688" y="244" width="300" height="28" rx="14" fill="#334155"/>
  <rect x="688" y="296" width="140" height="22" rx="11" fill="#475569"/>
  <rect x="688" y="346" width="480" height="12" rx="6" fill="#94a3b8"/>
  <rect x="688" y="370" width="480" height="12" rx="6" fill="#94a3b8"/>
  <rect x="688" y="394" width="320" height="12" rx="6" fill="#94a3b8"/>
  <!-- Size selector -->
  <rect x="688" y="442" width="80" height="14" rx="7" fill="#475569"/>
  <rect x="688" y="472" width="56" height="40" rx="8" fill="#ffffff" stroke="#e2e8f0" stroke-width="2"/>
  <rect x="756" y="472" width="56" height="40" rx="8" fill="#3b82f6"/>
  <rect x="824" y="472" width="56" height="40" rx="8" fill="#ffffff" stroke="#e2e8f0" stroke-width="2"/>
  <rect x="892" y="472" width="56" height="40" rx="8" fill="#ffffff" stroke="#e2e8f0" stroke-width="2"/>
  <!-- Add to cart -->
  <rect x="688" y="548" width="320" height="52" rx="26" fill="#3b82f6"/>
  <rect x="1024" y="548" width="52" height="52" rx="26" fill="#ffffff" stroke="#e2e8f0" stroke-width="2"/>
</svg>
