<svg width="1280" height="720" viewBox="0 0 1280 720" fill="none" xmlns="http://www.w3.org/2000/svg">
  <!-- Placeholder storefront screenshot: checkout flow -->
  <rect width="1280" height="720" fill="#f1f5f9"/>
  <!-- Browser chrome -->
  <rect width="1280" height="48" fill="#e2e8f0"/>
  <circle cx="28" cy="24" r="6" fill="#cbd5e1"/>
  <circle cx="50" cy="24" r="6" fill="#cbd5e1"/>
  <circle cx="72" cy="24" r="6" fill="#cbd5e1"/>
  <rect x="320" y="12" width="640" height="24" rx="12" fill="#f8fafc"/>
  <!-- Site header -->
  <rect x="0" y="48" width="1280" height="64" fill="#ffffff"/>
  <rect x="64" y="72" width="120" height="16" rx="8" fill="#334155"/>
  <!-- Checkout steps -->
  <circle cx="500" cy="156" r="14" fill="#3b82f6"/>
  <rect x="522" y="152" width="80" height="8" rx="4" fill="#3b82f6"/>
  <circle cx="640" cy="156" r="14" fill="#3b82f6"/>
  <rect x="662" y="152" width="80" height="8" rx="4" fill="#cbd5e1"/>
  <circle cx="780" cy="156" r="14" fill="#cbd5e1"/>
  <!-- Shipping form -->
  <rect x="64" y="210" width="680" height="470" rx="16" fill="#ffffff" stroke="#e2e8f0" stroke-width="2"/>
  <rect x="104" y="250" width="220" height="20" rx="10" fill="#334155"/>
  <rect x="104" y="300" width="120" height="12" rx="6" fill="#94a3b8"/>
  <rect x="104" y="322" width="600" height="44" rx="10" fill="#f8fafc" stroke="#e2e8f0" stroke-width="2"/>
  <rect x="104" y="390" width="120" height="12" rx="6" fill="#94a3b8"/>
  <rect x="104" y="412" width="600" height="44" rx="10" fill="#f8fafc" stroke="#e2e8f0" stroke-width="2"/>
  <rect x="104" y="480" width="120" height="12" rx="6" fill="#94a3b8"/>
  <rect x="104" y="502" width="288" height="44" rx="10" fill="#f8fafc" stroke="#e2e8f0" stroke-width="2"/>
  <rect x="416" y="502" width="288" height="44" rx="10" fill="#f8fafc" stroke="#e2e8f0" stroke-width="2"/>
  <rect x="104" y="586" width="240" height="52" rx="26" fill="#3b82f6"/>
  <!-- Order summary -->
  <rect x="784" y="210" width="432" height="380" rx="16" fill="#ffffff" stroke="#e2e8f0" stroke-width="2"/>
  <rect x="824" y="250" width="180" height="20" rx="10" fill="#334155"/>
  <rect x="824" y="300" width="64" height="64" rx="10" fill="#dbeafe"/>
  <rect x="904" y="310" width="180" height="12" rx="6" fill="#475569"/>
  <rect x="904" y="334" width="100" height="12" rx="6" fill="#94a3b8"/>
  <rect x="824" y="388" width="64" height="64" rx="10" fill="#e0e7ff"/>
  <rect x="904" y="398" width="180" height="12" rx="6" fill="#475569"/>
  <rect x="904" y="422" width="100" height="12" rx="6" fill="#94a3b8"/>
  <rect x="824" y="480" width="352" height="2" fill="#e2e8f0"/>
  <rect x="824" y="506" width="100" height="14" rx="7" fill="#94a3b8"/>
  <rect x="1076" y="506" width="100" height="14" rx="7" fill="#475569"/>
  <rect x="824" y="540" width="100" height="18" rx="9" fill="#334155"/>
  <rect x="1056" y="540" width="120" height="18" rx="9" fill="#3b82f6"/>
</svg>
