<svg width="1280" height="720" viewBox="0 0 1280 720" fill="none" xmlns="http://www.w3.org/2000/svg">
  <!-- Placeholder storefront screenshot: product catalogue grid -->
  <rect width="1280" height="720" fill="#f1f5f9"/>
  <!-- Browser chrome -->
  <rect width="1280" height="48" fill="#e2e8f0"/>
  <circle cx="28" cy="24" r="6" fill="#cbd5e1"/>
  <circle cx="50" cy="24" r="6" fill="#cbd5e1"/>
  <circle cx="72" cy="24" r="6" fill="#cbd5e1"/>
  <rect x="320" y="12" width="640" height="24" rx="12" fill="#f8fafc"/>
  <!-- Site header -->
  <rect x="0" y="48" width="1280" height="64" fill="#ffffff"/>
  <rect x="64" y="72" width="120" height="16" rx="8" fill="#334155"/>
  <rect x="760" y="74" width="64" height="12" rx="6" fill="#94a3b8"/>
  <rect x="848" y="74" width="64" height="12" rx="6" fill="#94a3b8"/>
  <rect x="936" y="74" width="64" height="12" rx="6" fill="#94a3b8"/>
  <rect x="1100" y="64" width="116" height="32" rx="16" fill="#3b82f6"/>
  <!-- Page heading -->
  <rect x="64" y="152" width="280" height="24" rx="12" fill="#334155"/>
  <rect x="64" y="190" width="180" height="12" rx="6" fill="#94a3b8"/>
  <!-- Product grid: 2 rows x 4 cards -->
  <g>
    <rect x="64" y="238" width="268" height="200" rx="12" fill="#ffffff" stroke="#e2e8f0" stroke-width="2"/>
    <rect x="64" y="238" width="268" height="130" rx="12" fill="#dbeafe"/>
    <rect x="80" y="384" width="140" height="12" rx="6" fill="#475569"/>
    <rect x="80" y="406" width="72" height="12" rx="6" fill="#3b82f6"/>
    <rect x="360" y="238" width="268" height="200" rx="12" fill="#ffffff" stroke="#e2e8f0" stroke-width="2"/>
    <rect x="360" y="238" width="268" height="130" rx="12" fill="#e0e7ff"/>
    <rect x="376" y="384" width="140" height="12" rx="6" fill="#475569"/>
    <rect x="376" y="406" width="72" height="12" rx="6" fill="#3b82f6"/>
    <rect x="656" y="238" width="268" height="200" rx="12" fill="#ffffff" stroke="#e2e8f0" stroke-width="2"/>
    <rect x="656" y="238" width="268" height="130" rx="12" fill="#cffafe"/>
    <rect x="672" y="384" width="140" height="12" rx="6" fill="#475569"/>
    <rect x="672" y="406" width="72" height="12" rx="6" fill="#3b82f6"/>
    <rect x="952" y="238" width="268" height="200" rx="12" fill="#ffffff" stroke="#e2e8f0" stroke-width="2"/>
    <rect x="952" y="238" width="268" height="130" rx="12" fill="#dbeafe"/>
    <rect x="968" y="384" width="140" height="12" rx="6" fill="#475569"/>
    <rect x="968" y="406" width="72" height="12" rx="6" fill="#3b82f6"/>
  </g>
  <g>
    <rect x="64" y="470" width="268" height="200" rx="12" fill="#ffffff" stroke="#e2e8f0" stroke-width="2"/>
    <rect x="64" y="470" width="268" height="130" rx="12" fill="#e0e7ff"/>
    <rect x="80" y="616" width="140" height="12" rx="6" fill="#475569"/>
    <rect x="80" y="638" width="72" height="12" rx="6" fill="#3b82f6"/>
    <rect x="360" y="470" width="268" height="200" rx="12" fill="#ffffff" stroke="#e2e8f0" stroke-width="2"/>
    <rect x="360" y="470" width="268" height="130" rx="12" fill="#dbeafe"/>
    <rect x="376" y="616" width="140" height="12" rx="6" fill="#475569"/>
    <rect x="376" y="638" width="72" height="12" rx="6" fill="#3b82f6"/>
    <rect x="656" y="470" width="268" height="200" rx="12" fill="#ffffff" stroke="#e2e8f0" stroke-width="2"/>
    <rect x="656" y="470" width="268" height="130" rx="12" fill="#dbeafe"/>
    <rect x="672" y="616" width="140" height="12" rx="6" fill="#475569"/>
    <rect x="672" y="638" width="72" height="12" rx="6" fill="#3b82f6"/>
    <rect x="952" y="470" width="268" height="200" rx="12" fill="#ffffff" stroke="#e2e8f0" stroke-width="2"/>
    <rect x="952" y="470" width="268" height="130" rx="12" fill="#cffafe"/>
    <rect x="968" y="616" width="140" height="12" rx="6" fill="#475569"/>
    <rect x="968" y="638" width="72" height="12" rx="6" fill="#3b82f6"/>
  </g>
</svg>
