<svg width="1200" height="630" viewBox="0 0 1200 630" fill="none" xmlns="http://www.w3.org/2000/svg">
  <style>
    .bg  { fill: var(--brand-500); }
    .ico { stroke: var(--brand-100); stroke-width: 1.6; stroke-linecap: round; stroke-linejoin: round; fill: none; }
    .txt { fill: var(--brand-50); font-family: 'Outfit Variable', Outfit, system-ui, -apple-system, sans-serif; font-weight: 800; }
    .ln  { stroke: var(--brand-300); stroke-width: 1; stroke-opacity: 0.35; }
    .pil { fill: var(--brand-400); fill-opacity: 0.25; stroke: var(--brand-200); stroke-opacity: 0.4; stroke-width: 1; }
    .ptx { fill: var(--brand-100); font-family: 'Outfit Variable', Outfit, system-ui, -apple-system, sans-serif; }
    .cor { stroke: var(--brand-300); stroke-width: 1.5; fill: none; stroke-opacity: 0.45; }
    .num { fill: var(--brand-50); font-family: 'Outfit Variable', Outfit, system-ui, -apple-system, sans-serif; font-weight: 800; fill-opacity: 0.18; }
    /* Stack cards — light frosted panels so the marquee reads clearly on the brand background (light + dark) */
    .mq-card { fill: var(--brand-100); fill-opacity: 0.42; stroke: var(--brand-50); stroke-opacity: 0.9; stroke-width: 1.5; }
    .mq-ico  { fill: var(--brand-600); fill-opacity: 0.9; }
    .mq-bar  { fill: var(--brand-500); fill-opacity: 0.8; }
  </style>
  <defs>
    <!-- One stack card: rounded outline + icon badge + two label bars -->
    <g id="mq-card">
      <rect width="200" height="84" rx="16" class="mq-card"/>
      <circle cx="40" cy="42" r="17" class="mq-ico"/>
      <rect x="70" y="33" width="96" height="9" rx="4.5" class="mq-bar"/>
      <rect x="70" y="51" width="62" height="9" rx="4.5" class="mq-bar"/>
    </g>
    <!-- Edge fade masks (the marquee's signature soft edges) -->
    <linearGradient id="mq-fade-l" x1="0" y1="0" x2="1" y2="0">
      <stop offset="0" stop-color="var(--brand-600)" stop-opacity="1"/>
      <stop offset="1" stop-color="var(--brand-600)" stop-opacity="0"/>
    </linearGradient>
    <linearGradient id="mq-fade-r" x1="0" y1="0" x2="1" y2="0">
      <stop offset="0" stop-color="var(--brand-600)" stop-opacity="0"/>
      <stop offset="1" stop-color="var(--brand-600)" stop-opacity="1"/>
    </linearGradient>
  </defs>

  <rect width="1200" height="630" class="bg"/>

  <!-- Top row — scrolls one way -->
  <use href="#mq-card" x="-44" y="158"/>
  <use href="#mq-card" x="196" y="158"/>
  <use href="#mq-card" x="436" y="158"/>
  <use href="#mq-card" x="676" y="158"/>
  <use href="#mq-card" x="916" y="158"/>
  <use href="#mq-card" x="1156" y="158"/>

  <!-- Bottom row — offset, scrolls the other way -->
  <use href="#mq-card" x="-164" y="282"/>
  <use href="#mq-card" x="76" y="282"/>
  <use href="#mq-card" x="316" y="282"/>
  <use href="#mq-card" x="556" y="282"/>
  <use href="#mq-card" x="796" y="282"/>
  <use href="#mq-card" x="1036" y="282"/>

  <!-- Soft edges over both rows -->
  <rect x="0" y="142" width="248" height="266" fill="url(#mq-fade-l)"/>
  <rect x="952" y="142" width="248" height="266" fill="url(#mq-fade-r)"/>

  <!-- Title -->
  <text x="600" y="486" font-size="92" text-anchor="middle" letter-spacing="-2" class="txt">marquee</text>

  <!-- Corner brackets -->
  <path d="M 36 60 L 36 36 L 60 36" class="cor"/>
  <path d="M 1140 36 L 1164 36 L 1164 60" class="cor"/>
  <path d="M 36 570 L 36 594 L 60 594" class="cor"/>
  <path d="M 1140 594 L 1164 594 L 1164 570" class="cor"/>
</svg>
